<?xml version="1.0" standalone="no"?>
<!DOCTYPE svg PUBLIC "-//W3C//DTD SVG 20010904//EN"
 "http://www.w3.org/TR/2001/REC-SVG-20010904/DTD/svg10.dtd">
<svg version="1.0" xmlns="http://www.w3.org/2000/svg"
 width="980.000000pt" height="982.000000pt" viewBox="0 0 980.000000 982.000000"
 preserveAspectRatio="xMidYMid meet">

<g transform="translate(0.000000,982.000000) scale(0.100000,-0.100000)"
fill="#000000" stroke="none">
<path d="M3500 9799 c-244 -21 -514 -71 -753 -139 -214 -62 -394 -132 -622
-245 -380 -188 -674 -396 -974 -689 -306 -300 -535 -608 -727 -981 -217 -420
-349 -860 -406 -1360 -19 -169 -16 -637 5 -815 146 -1192 804 -2215 1823
-2833 1100 -666 2498 -724 3648 -151 162 81 300 160 415 237 l74 49 1426
-1425 c1260 -1259 1430 -1426 1463 -1432 82 -15 77 -19 500 403 219 218 404
410 413 428 19 41 19 77 -1 117 -9 18 -653 669 -1431 1448 l-1415 1416 75 114
c522 802 718 1799 541 2755 -230 1251 -1080 2310 -2259 2814 -317 136 -673
230 -1043 276 -151 18 -600 27 -752 13z m635 -904 c679 -78 1277 -372 1755
-861 226 -231 384 -452 524 -734 149 -300 227 -550 283 -910 25 -164 25 -605
0 -775 -51 -339 -143 -639 -282 -916 -401 -798 -1152 -1375 -2018 -1550 -848
-171 -1702 30 -2387 562 -215 166 -463 435 -620 669 -328 491 -490 1026 -490
1620 0 543 134 1035 407 1491 463 777 1263 1296 2163 1403 159 19 504 20 665
1z"/>
</g>
</svg>
